<?xml version="1.0" encoding="UTF-8"?>
<svg id="Layer_2" data-name="Layer 2" xmlns="http://www.w3.org/2000/svg" viewBox="0 0 693.06 161.52">
  <defs>
    <style>
      .cls-1 {
        fill: #fff;
      }
    </style>
  </defs>
  <g id="Layer_1-2" data-name="Layer 1">
    <path class="cls-1" d="M.03,11.28c.33.95.47,1.93.84,2.88,1.15,2.91,4.13,5.35,7.18,5.98l.03,3.16C3.75,24.39.77,27.78.03,32.16v2.4c.88,4.37,3.83,7.65,8.17,8.79l-.03,3.2C3.73,47.19.82,50.95.03,55.2v2.4c.89,4.4,3.74,7.74,8.17,8.79l-.03,3.2c-4.41.65-7.3,4.45-8.15,8.65v2.4c.83,4.2,3.72,8.04,8.15,8.65l-.13,2.18c-4.34.99-7.3,4.52-8.02,8.85v2.16c.33.95.47,1.93.84,2.88,1.15,2.91,4.13,5.35,7.18,5.98l.03,3.16c-4.33,1.09-7.31,4.48-8.05,8.87v2.4c.88,4.3,3.83,7.75,8.17,8.79l-.03,2.72c-4.43.61-7.32,4.45-8.15,8.65v2.4c1.23,7.21,8.8,11.33,15.37,7.57,8.09-4.63,5.9-16.98-3.14-18.75l.04-2.72c10.68-2.26,10.79-17.26.21-19.82l-.21-3.22c10.77-2.59,10.76-17.3,0-19.98l-.02-2.12c10.79-1.98,10.78-17.68,0-19.7l-.02-3.21c10.81-2.52,10.82-17.24.12-20.05l-.12-2.98c10.75-2.56,10.86-17.36.12-20.05l-.12-2.99c3.89-1.07,7.4-4.16,7.93-8.31h8.64v122.4h-6.72l13.32,27.12,12.96-26.4,12.84,26.4,12.96-26.4,13.08,26.4,12.96-26.16,13.2,26.16,12.59-25.2,12.36,25.19,13.32-27.12h-5.76V12.96h7.44c.14,3.11,1.98,6.12,4.58,7.78.83.53,3.02,1.19,3.34,1.46.45.37.25,2.37.13,3.01-9.41,2.3-11.13,15.02-2.29,19.31.54.26,1.85.45,2.16.72.51.42.13,2.51.23,3.23-10.89,2.19-10.82,17.39-.1,19.92l.12,2.99c-10.79,2.5-10.97,17.44-.16,20.04l-.09,2.07c-9.67,2.6-10.98,15.02-1.61,19.36.44.2,1.37.36,1.61.55.45.37.25,2.37.13,3.01-10.71,2.85-10.77,17.36,0,20.14l.12,2.51c-8.45,1.9-11.26,12.46-4.34,18.03,5.29,4.26,13.55,2,15.79-4.38,2.06-5.86-1.2-12.1-7.25-13.48l-.13-2.9c10.7-2.26,10.51-17.34-.03-19.84l.04-3.19c10.67-2.38,10.52-17.37-.04-19.84l.12-2.04c10.42-2.61,10.52-17.34.04-19.88l-.03-3.16c10.54-2.86,10.47-17.29-.12-20.06l.03-3.2c10.57-2.18,10.63-17.44.01-19.71l-.04-3.19c12.76-3.35,9.37-21.95-4.12-20-3.63.52-6.22,3.56-7.74,6.66h-7.8v-4.56H28.82v3.6h-8.52c-.55-1.08-.87-2.22-1.55-3.25-1.76-2.66-4.36-4.09-7.44-4.67h-2.16C4.54.56.58,4.53.03,9.12c-.08.68.06,1.46,0,2.16ZM167.16,144.24c5.85,4.48,0,13.94-6.76,10.12-4.42-2.49-3.86-9.58,1.13-10.85v3.96c0,.64,1.6,1.17,2.29,1.1,2.3-.26,1.6-3.24,1.79-4.7.1-.77,1.18.07,1.56.36ZM165.6,120.96c5.28,1.7,5.14,9.33,0,11.28.25-1.97-.41-4.51-2.9-3.73-1.7.53-1.02,2.14-1.19,3.38-.04.27.09.49-.36.35-.36-.11-1.36-.89-1.69-1.19-3.57-3.21-2.35-8.7,2.04-10.32,0,1.56-.43,3.88,1.67,4.22,2.18.36,2.7-2.36,2.41-3.98ZM165.6,101.16v-3.48c5.25,2.16,5.19,9.28,0,11.52.93-6.02-5.19-6.32-4.08,0-5.44-1.97-5.5-9.57,0-11.52v3.96c0,.8,1.47,1.42,2.26,1.32.73-.09,1.82-1.11,1.82-1.8ZM165.72,75.84c4.1,1.51,5.02,6.92,2.05,9.97-.31.32-1.45,1.19-1.81,1.31-.44.14-.32-.08-.36-.35-.19-1.46.43-3.59-1.68-4.1-2.54-.62-2.62,2.76-2.4,4.45-5.48-1.51-5.48-9.9,0-11.28-.11,1.77-.28,4.34,2.26,4.08,2.41-.25,1.67-4.08,1.94-4.08ZM165.6,52.8c5.27,1.73,5.12,9.26.12,11.28-.08-1.68.06-4.95-2.58-4.52-2.24.37-1.53,2.88-1.62,4.52-5.38-1.59-5.53-9.86,0-11.28.05,1.41-.44,3.38,1.26,3.89,2.52.76,3.07-1.96,2.82-3.89ZM165.6,29.76c5.31,1.67,5.12,9.33,0,11.28.27-1.96-.1-5.34-2.89-4.45-1.74.55-1.01,2.79-1.19,4.1-.04.27.09.49-.36.35-.36-.11-1.36-.89-1.69-1.19-3.57-3.21-2.35-8.7,2.04-10.32,0,1.56-.43,3.88,1.67,4.22,2.18.36,2.7-2.36,2.41-3.98ZM164.29,6.23c6.17.55,7.17,9.73,1.31,11.53.79-5.92-5.25-5.84-4.08.24-6.77-2.65-4.73-12.43,2.77-11.77ZM36.09,117.54c-4.01.82-4.67-4.83-1.33-5.41,3.95-.69,4.49,4.76,1.33,5.41ZM61.1,117.61c-3.15-.22-3.38-4.89-.43-5.48,4.35-.88,4.7,5.78.43,5.48ZM113.83,117.54c-4.01.82-4.67-4.83-1.33-5.41,3.95-.69,4.57,4.75,1.33,5.41ZM115.13,90.88c-2.31,2.31-6.24-.78-4.24-3.64,2.28-3.26,7.05.83,4.24,3.64ZM137.7,8.22c5.55-1.42,4.53,7.24-.18,5.1-2.18-.99-1.87-4.57.18-5.1ZM138.64,32.72c3.71-.11,3.87,5.49.16,5.59-3.64.1-3.78-5.49-.16-5.59ZM139.75,65.47c-4.55,1.04-4.91-5.02-1.33-5.42,3.43-.39,4.15,4.78,1.33,5.42ZM137.52,91.32c-2.18-.99-1.87-4.57.18-5.1,5.55-1.42,4.53,7.24-.18,5.1ZM140.8,112.88c2.29,2.4-.84,6.2-3.64,4.24-3.24-2.27.83-7.19,3.64-4.24ZM120.01,17.28h12.72v12.96h-12.72v-12.96ZM120.01,43.44h12.72v12.96h-12.72v-12.96ZM120.01,69.36h12.72v12.96h-12.72v-12.96ZM120.01,95.28h12.72v12.96h-12.72v-12.96ZM120.01,121.44h12.72v12.96h-12.72v-12.96ZM110.89,9.24c2.28-3.26,7.05.83,4.24,3.64-2.31,2.31-6.24-.78-4.24-3.64ZM114.42,37.97c-4.13,2.16-5.78-5.09-1.45-5.24,2.97-.1,4.13,3.85,1.45,5.24ZM115.13,60.8c2.64,2.63-1.34,6.45-3.92,4.16-2.67-2.37,1.19-6.9,3.92-4.16ZM93.85,17.28h12.96v12.96h-12.96v-12.96ZM93.85,43.44h12.96v12.96h-12.96v-12.96ZM93.85,69.36h12.96v12.96h-12.96v-12.96ZM93.85,95.28h12.96v12.96h-12.96v-12.96ZM93.85,121.44h12.96v12.96h-12.96v-12.96ZM86.11,8.22c4.33-1.11,5.02,4.74,1.56,5.41-3.5.68-4.53-4.65-1.56-5.41ZM87.22,38.32c-3.67.11-3.82-5.49-.16-5.59,3.67-.11,3.82,5.49.16,5.59ZM86.84,60.04c3.46-.39,4.14,4.89,1.12,5.46-4.43.84-4.74-5.06-1.12-5.46ZM87.67,91.63c-3.5.68-4.53-4.65-1.56-5.41,4.33-1.11,5.02,4.74,1.56,5.41ZM85.06,112.88c2.5-2.66,6.65,1.26,4.16,3.92-2.52,2.67-6.69-1.22-4.16-3.92ZM67.94,17.28h12.6l.36.36v12.6h-12.96v-12.96ZM67.94,43.44h12.96v12.6l-.36.36h-12.6v-12.96ZM67.94,69.36h12.96v12.96h-12.96v-12.96ZM67.94,95.28h12.6l.36.36v12.6h-12.96v-12.96ZM67.94,121.44h12.96v12.6l-.36.36h-12.6v-12.96ZM63.62,9.24c1.97,2.81-1.81,5.95-4.24,3.64-2.89-2.76,1.95-6.91,4.24-3.64ZM62.63,38.01c-4.1,1.92-5.76-4.94-1.48-5.32,3.02-.27,4.15,4.07,1.48,5.32ZM59.38,60.8c2.43-2.31,6.21.83,4.24,3.64-2.29,3.27-7.13-.88-4.24-3.64ZM63.62,87.24c1.97,2.81-1.81,5.95-4.24,3.64-2.89-2.76,1.95-6.91,4.24-3.64ZM42.02,17.28h12.72v12.96h-12.72v-12.96ZM42.02,43.44h12.72v12.96h-12.72v-12.96ZM42.02,69.36h12.72v12.96h-12.72v-12.96ZM42.02,95.28h12.72v12.96h-12.72v-12.96ZM42.02,121.44h12.72v12.96h-12.72v-12.96ZM33.4,8.77c2.62-2.41,6.59,1.5,3.98,4.11-2.68,2.68-6.61-1.68-3.98-4.11ZM36.67,37.97c-4.13,2.16-5.78-5.09-1.45-5.24,2.97-.1,4.13,3.85,1.45,5.24ZM34.94,65.53c-3.16-.33-3.08-5.05.07-5.48,3.83-.53,4.49,5.96-.07,5.48ZM33.4,86.77c2.62-2.41,6.59,1.5,3.98,4.11-2.68,2.68-6.61-1.68-3.98-4.11ZM12.26,145.32v-3.96c6.59,2.59,4.74,12.18-2.53,11.77-6.52-.37-7.62-9.56-1.55-11.77.16,1.09-.22,2.72,0,3.72.15.7,1.3,1.56,2.05,1.58.65.02,2.03-.79,2.03-1.34ZM12.38,130.32c-.05-1.55-.03-4.25-2.34-4.03-2.12.21-1.68,2.12-1.86,3.44-.04.3.11.45-.36.36-.36-.07-1.6-.93-1.89-1.23-3.13-3.13-1.96-8.64,2.25-10.05-.93,5.53,5.08,5.6,4.08,0,5.44,2,5.31,9.26.12,11.52ZM14.54,105.84c-.25.25-1.62,1.15-1.92,1.21-.48.09-.32-.06-.36-.36-.17-1.21.5-3.13-1.02-3.78-2.95-1.27-3.39,2.02-3.06,4.14-5.38-1.78-5.33-9.42,0-11.28v3.72c0,.6,1.37,1.53,2.04,1.53s2.04-.92,2.04-1.53v-3.72c4.23,1.3,5.44,7,2.28,10.08ZM12.27,73.68c5.41,2.06,5.42,9.48,0,11.52-.1-1.55.57-3.98-1.44-4.45-2.86-.67-2.69,2.57-2.76,4.44-5.25-2.3-5.2-9.35.12-11.52-.03,1.68-.37,3.94,1.89,4.19,2.39.26,2.34-2.53,2.2-4.19ZM12.27,50.64c5.45,2.04,5.4,9.45,0,11.52.09-2.1.4-5.19-2.7-4.5-1.85.42-1.21,3.16-1.5,4.49-5.16-2.34-5.31-9.39.12-11.52-.97,5.58,5.1,5.57,4.08,0ZM12.27,27.6c5.4,1.77,5.39,9.74,0,11.28.14-2.09.26-4.93-2.71-4.27-1.78.4-1.33,2.91-1.37,4.27-5.35-1.6-5.34-9.48,0-11.28-.93,5.53,5.08,5.6,4.08,0ZM7.88,4.61c7.64-3.1,12.18,8.5,4.39,11.23.14-2.08.26-4.93-2.71-4.27-1.87.42-1.3,2.85-1.37,4.27-5.23-1.66-5.36-9.18-.31-11.23Z"/>
    <g>
      <path class="cls-1" d="M231.46,114.89c-20.3,0-35.3-16-35.3-37.1s15-35.6,35.3-35.6h39.4v12.7h-39.4c-13,0-22.6,9.7-22.6,23.5s9.5,23.8,22.6,23.8h39.4v12.7h-39.4Z"/>
      <path class="cls-1" d="M348.66,114.89l-18.4-20.2h-27.2v-11.2h30.3c9.1,0,13.9-5.2,13.9-14.6s-5.2-14-13.9-14h-39.6v60h-12.6V42.19h52.2c16.6,0,26.4,10.3,26.4,26.5,0,12-5.6,20.5-15,24.1l21.9,22.1h-18Z"/>
      <path class="cls-1" d="M397.96,114.89v-27.6l-38.6-45.1h17.1l28.3,33.5,28.4-33.5h16.2l-38.7,45.1v27.6h-12.7Z"/>
      <path class="cls-1" d="M478.86,94.69v-12.3h29.2c8.9,0,14.2-5.6,14.2-13.8s-5.3-13.7-14.2-13.7h-38.5v60h-12.6V42.19h51.1c16.8,0,26.6,10.1,26.6,26s-9.8,26.5-26.6,26.5h-29.2Z"/>
      <path class="cls-1" d="M566.95,114.89v-60h-27.6v-12.7h67.9v12.7h-27.6v60h-12.7Z"/>
      <path class="cls-1" d="M677.76,114.89l-10.9-18.3h-34.4l6-10.3h22.3l-16.2-27.2-33,55.8h-14.5l41.8-69.6c1.5-2.5,3.4-4.1,6.2-4.1s4.6,1.6,6.1,4.1l41.9,69.6h-15.3Z"/>
    </g>
  </g>
</svg>